<svg width="154" height="27" viewBox="0 0 154 27" fill="none" xmlns="http://www.w3.org/2000/svg">
<path fill-rule="evenodd" clip-rule="evenodd" d="M89.0032 4.9362V1.5279C89.0032 1.01205 89.4051 0.666 89.8872 0.666H105.538C106.04 0.666 106.442 1.0185 106.442 1.5279V4.44645C106.435 4.9362 106.013 5.5761 105.263 6.58815L97.1534 17.8774C100.167 17.8057 103.348 18.2431 106.08 19.7449C106.696 20.0844 106.864 20.5807 106.911 21.0703V24.7072C106.911 25.2034 106.348 25.7845 105.759 25.4842C100.944 23.0227 94.5483 22.755 89.2243 25.5103C88.6819 25.7977 88.1126 25.2231 88.1126 24.7269V21.2728C88.1126 20.7178 88.1192 19.771 88.6885 18.9288L98.0842 5.79165H89.9072C89.4051 5.79165 89.0032 5.4456 89.0032 4.9362ZM31.9129 26.2024H27.1514C26.696 26.1699 26.3345 25.8369 26.3009 25.4124V1.5867C26.3009 1.11 26.7094 0.73125 27.2183 0.73125H31.6583C32.1205 0.75075 32.4888 1.09695 32.5223 1.52775V4.6425H32.6094C33.7679 1.63245 35.9443 0.22875 38.8776 0.22875C41.8576 0.22875 43.7194 1.63245 45.0588 4.6425C46.2106 1.63245 48.8291 0.22875 51.6351 0.22875C53.6306 0.22875 55.8139 1.03185 57.1465 2.83395C58.6532 4.8384 58.3452 7.7505 58.3452 10.3035L58.3385 25.3407C58.3385 25.8174 57.93 26.2026 57.4211 26.2026H52.6663C52.1909 26.17 51.8091 25.7979 51.8091 25.3407V12.7128C51.8091 11.7072 51.9029 9.1998 51.6752 8.2467C51.3203 6.64695 50.2556 6.19635 48.8759 6.19635C47.724 6.19635 46.5186 6.94725 46.0297 8.14875C45.5409 9.35025 45.5879 11.3611 45.5879 12.7128V25.3405C45.5879 25.8172 45.1792 26.2024 44.6703 26.2024H39.9156C39.4334 26.1699 39.0583 25.7977 39.0583 25.3405L39.0517 12.7128C39.0517 10.0552 39.5003 6.1443 36.1185 6.1443C32.6965 6.1443 32.8303 9.9573 32.8303 12.7128V25.3405C32.8303 25.8172 32.4219 26.2024 31.9129 26.2024ZM119.916 0.2286C126.981 0.2286 130.805 6.14415 130.805 13.666C130.805 20.9332 126.579 26.6988 119.916 26.6988C112.978 26.6988 109.201 20.7831 109.201 13.4113C109.201 5.994 113.025 0.2286 119.916 0.2286ZM119.956 5.09295C116.447 5.09295 116.226 9.75495 116.226 12.6604C116.226 15.5727 116.179 21.7885 119.916 21.7885C123.606 21.7885 123.78 16.774 123.78 13.7182C123.78 11.7072 123.693 9.30435 123.07 7.39785C122.534 5.7393 121.47 5.09295 119.956 5.09295M139.966 26.2024H135.225C134.749 26.1699 134.368 25.7977 134.368 25.3405L134.361 1.50825C134.401 1.07085 134.796 0.73125 135.278 0.73125H139.692C140.107 0.75075 140.448 1.02525 140.542 1.39725V5.04075H140.629C141.962 1.7826 143.83 0.2286 147.118 0.2286C149.255 0.2286 151.337 0.97935 152.677 3.03615C153.922 4.94265 153.922 8.14875 153.922 10.4536V25.4515C153.869 25.8694 153.474 26.2024 153.005 26.2024H148.23C147.795 26.1699 147.433 25.8564 147.386 25.4515V12.5103C147.386 9.9051 147.694 6.0918 144.406 6.0918C143.248 6.0918 142.183 6.8493 141.654 7.99845C140.984 9.45465 140.897 10.9041 140.897 12.5104V25.3405C140.89 25.8172 140.475 26.2024 139.966 26.2024ZM76.5271 14.8218C76.5271 16.6303 76.574 18.1388 75.6363 19.7448C74.8797 21.0508 73.6743 21.8538 72.3416 21.8538C70.5134 21.8538 69.4419 20.4958 69.4419 18.4912C69.4419 14.5344 73.0783 13.8162 76.5271 13.8162V14.8218ZM81.3286 26.1372C81.014 26.4114 80.5586 26.431 80.2037 26.2482C78.6232 24.9684 78.3352 24.3742 77.4714 23.1532C74.8596 25.752 73.0046 26.529 69.6226 26.529C65.6112 26.529 62.4972 24.1195 62.4972 19.2945C62.4972 15.5269 64.5866 12.9609 67.5734 11.7072C70.1585 10.5972 73.768 10.4013 76.5272 10.0944V9.4938C76.5272 8.39025 76.6142 7.08435 75.9445 6.1311C75.3686 5.2758 74.2568 4.92315 73.2725 4.92315C71.4576 4.92315 69.8437 5.83065 69.4486 7.7112C69.3682 8.1291 69.0534 8.5404 68.6182 8.56005L64.004 8.0769C63.6157 7.992 63.1803 7.6851 63.2942 7.104C64.3523 1.6455 69.4151 0 73.9423 0C76.2594 0 79.2863 0.60075 81.1146 2.3115C83.4315 4.4205 83.2106 7.2345 83.2106 10.2969V17.5314C83.2106 19.7058 84.1349 20.6589 85.0054 21.8343C85.3069 22.2522 85.3737 22.755 84.9854 23.0683C84.0143 23.8584 82.2865 25.3275 81.3355 26.1502L81.3289 26.1372M14.106 14.8218C14.106 16.6303 14.1529 18.1388 13.2152 19.7448C12.4586 21.0508 11.2599 21.8538 9.92048 21.8538C8.09233 21.8538 7.0274 20.4958 7.0274 18.4912C7.0274 14.5344 10.6639 13.8162 14.106 13.8162V14.8218ZM18.9076 26.1372C18.5929 26.4114 18.1376 26.431 17.7826 26.2482C16.2022 24.9684 15.9208 24.3742 15.0503 23.1532C12.4385 25.752 10.5903 26.529 7.20156 26.529C3.19694 26.529 0.0761719 24.1195 0.0761719 19.2945C0.0761719 15.5269 2.17233 12.9609 5.15233 11.7072C7.7374 10.5972 11.3469 10.4013 14.106 10.0944V9.4938C14.106 8.39025 14.1931 7.08435 13.53 6.1311C12.9474 5.2758 11.8359 4.92315 10.858 4.92315C9.04325 4.92315 7.42263 5.83065 7.0274 7.7112C6.94709 8.1291 6.63233 8.5404 6.20371 8.56005L1.58294 8.0769C1.19448 7.992 0.766018 7.6851 0.873095 7.104C1.93786 1.6455 6.99402 0 11.5211 0C13.838 0 16.8651 0.60075 18.6934 2.3115C21.0103 4.4205 20.7894 7.2345 20.7894 10.2969V17.5314C20.7894 19.7058 21.7136 20.6589 22.5842 21.8343C22.8923 22.2522 22.9592 22.755 22.5708 23.0683C21.5997 23.8584 19.872 25.3275 18.9211 26.1502L18.9077 26.1372" fill="white"/>
</svg>
