<svg width="154" height="30" viewBox="0 0 154 30" fill="none" xmlns="http://www.w3.org/2000/svg">
<path d="M9.82232 28.5843H4.02525V14.4942H0.0761719V9.90675H4.02509V6.64245C4.02509 2.77425 5.77171 0 11.5531 0C12.7759 0 14.6956 0.2403 14.6956 0.2403V4.5H12.6792C10.6248 4.5 9.82263 5.1093 9.82263 6.7938V9.90675H14.6186L14.1916 14.4942H9.82248L9.82232 28.5843ZM23.1239 9.54015C23.0394 9.54015 22.9525 9.54315 22.8665 9.54525C17.4911 9.54525 15.0317 13.4876 15.0317 19.0837C15.0317 26.1335 18.2219 28.955 22.9085 28.955C25.5899 28.955 27.3516 27.8546 28.4223 25.8011V28.5863H33.9362V9.9087H28.4223V12.7811C27.548 10.9331 25.7371 9.56205 23.1239 9.54015ZM24.5259 13.9536C26.7836 13.9536 28.1386 15.489 28.1386 18.1007L28.1439 20.7681C28.1439 22.5284 27.0246 24.5877 24.5259 24.5877C20.6843 24.5877 20.7869 20.5434 20.7869 19.1964C20.7869 14.6653 22.8337 13.9536 24.5259 13.9536ZM36.1629 19.2485C36.1629 16.9788 36.0516 9.5523 45.9752 9.5523C49.9588 9.5523 51.6222 10.7873 51.6222 10.7873L50.2852 14.8302C50.2852 14.8302 48.624 13.9383 46.4594 13.9383C43.6869 13.9383 41.9179 15.5054 41.9179 18.2625L41.9209 20.2395C41.9209 22.8888 43.6279 24.6573 46.4651 24.6573C48.4371 24.6573 50.2546 23.757 50.2546 23.757L51.5882 27.7155C51.5882 27.7155 50.0672 28.9583 46.0031 28.9583C36.5542 28.9583 36.1631 22.2952 36.1631 19.2485H36.1629ZM83.9519 9.54525C89.3274 9.54525 91.8255 13.4876 91.8255 19.0837C91.8255 26.1335 88.6352 28.955 83.9486 28.955C81.2673 28.955 79.2851 27.8547 78.2143 25.8011V28.5863L72.7699 28.5842V0.5679L78.5505 0.07635V12.528C79.3848 10.3496 82.1266 9.54525 83.952 9.54525H83.9519ZM82.3312 13.9536C80.0736 13.9536 78.5505 15.489 78.5505 18.1007L78.5451 20.7681C78.5417 22.5284 79.5999 24.5877 82.3312 24.5877C86.1728 24.5877 86.0702 20.5434 86.0702 19.1964C86.0702 14.6653 84.0236 13.9536 82.3312 13.9536ZM61.652 9.5607C55.5551 9.5607 52.3363 12.8018 52.3363 18.5615V19.6315C52.3363 27.1071 56.8565 29.0318 62.2454 29.0318C67.4834 29.0318 69.8543 27.6033 69.8543 27.6033L68.7726 23.7993C68.7726 23.7993 65.9837 24.9563 62.9385 24.9563C59.7816 24.9563 58.4239 24.1718 58.0759 21.2138H70.3165V18.162C70.3165 11.9142 66.704 9.56055 61.6519 9.56055L61.652 9.5607ZM61.7989 13.3698C63.9094 13.3698 65.2769 14.6316 65.2019 17.558H58.0865C58.2099 14.478 59.6846 13.37 61.7989 13.37V13.3698ZM103.352 9.53505C97.0908 9.53505 93.7946 12.9752 93.7946 19.14C93.7946 27.5985 99.4765 28.9601 103.362 28.9601C109.051 28.9601 112.836 25.974 112.836 19.2168C112.836 12.1838 108.58 9.53505 103.352 9.53505ZM103.273 13.9689C106.026 13.9689 107.117 15.9779 107.117 18.2646V20.2307C107.117 23.0009 105.591 24.6032 103.263 24.6032C101.085 24.6032 99.5552 23.1044 99.5552 20.2307V18.2646C99.5552 15.1998 101.376 13.9689 103.273 13.9689ZM124.352 9.53505C118.09 9.53505 114.794 12.9752 114.794 19.14C114.794 27.5985 120.476 28.9601 124.362 28.9601C130.05 28.9601 133.835 25.974 133.835 19.2168C133.835 12.1838 129.58 9.53505 124.352 9.53505ZM124.273 13.9689C127.026 13.9689 128.117 15.9779 128.117 18.2646V20.2307C128.117 23.0009 126.59 24.6032 124.262 24.6032C122.085 24.6032 120.555 23.1044 120.555 20.2307V18.2646C120.555 15.1998 122.376 13.9689 124.273 13.9689ZM136.02 28.5843V0.5679L141.817 0.0765V18.8549L147.569 9.9069H153.691L147.691 19.1744L153.922 28.5843H147.782L141.817 19.4472V28.5843H136.02Z" fill="white"/>
</svg>
