<svg width="154" height="41" viewBox="0 0 154 41" fill="none" xmlns="http://www.w3.org/2000/svg">
<path d="M21.2305 37.9254C18.9162 38.3216 16.5611 38.4404 14.125 38.7568L6.69441 17.5377V39.6675C4.38011 39.905 2.26878 40.2217 0.0761719 40.5384V0H6.24805L14.6934 23.0011V0H21.2305V37.9254ZM34.0206 14.8456C36.5382 14.8456 40.3954 14.7268 42.7097 14.7268V21.0608C39.8268 21.0608 36.4569 21.0608 34.0206 21.1796V30.6018C37.8374 30.3643 41.6541 30.0473 45.5113 29.9285V36.0248L27.5239 37.4106V0H45.5113V6.33413H34.0206V14.8456ZM69.6702 6.33428H62.9301V35.4712C60.7375 35.4712 58.5449 35.4712 56.4339 35.5501V6.33428H49.6938V0H69.6705L69.6702 6.33428ZM80.227 14.4103H89.1193V20.7442H80.227V35.1149H73.8519V0H92.0021V6.33413H80.227V14.4103ZM102.559 29.5724C106.254 29.6514 109.989 29.929 113.603 30.1266V36.3816C107.797 36.0251 101.991 35.6692 96.0625 35.5501V0H102.559V29.5724ZM119.084 36.8171C121.155 36.936 123.348 37.0548 125.459 37.292V0H119.084V36.8171ZM153.922 0L145.68 19.2795L153.922 40.5384C151.486 40.2217 149.05 39.7862 146.613 39.3902L141.944 27.6724L137.194 38.4404C134.839 38.0442 132.565 37.9254 130.21 37.6087L138.575 19.0418L131.022 0H138.006L142.269 10.6493L146.817 0H153.922Z" fill="white"/>
</svg>
